<svg id="behance" xmlns="http://www.w3.org/2000/svg" width="30" height="18.75" viewBox="0 0 30 18.75">
  <path id="behance-2" data-name="behance" d="M27.5,7.5H18.75V5H27.5ZM29.657,20c-.552,1.621-2.536,3.75-6.376,3.75s-6.955-2.161-6.955-7.094c0-4.887,2.906-7.4,6.832-7.4,3.852,0,6.2,2.227,6.719,5.532A16.737,16.737,0,0,1,30,17.464H19.962A3.367,3.367,0,0,0,25.7,20h3.96ZM20.05,15h6.206a2.793,2.793,0,0,0-3.1-2.774A2.864,2.864,0,0,0,20.05,15ZM8.082,23.735H0V5.026H8.691c6.845.1,6.975,6.8,3.4,8.632C16.417,15.234,16.562,23.735,8.082,23.735ZM3.75,12.5H8.23c3.135,0,3.632-3.75-.39-3.75H3.75V12.5Zm4.239,3.75H3.75v3.77H7.926C11.745,20.02,11.511,16.25,7.989,16.25Z" transform="translate(0 -5)" fill="#777"/>
</svg>
