<svg id="github" xmlns="http://www.w3.org/2000/svg" width="30" height="29.26" viewBox="0 0 30 29.26">
  <path id="github-2" data-name="github" d="M15,0a15,15,0,0,0-4.741,29.234c.749.139.991-.326.991-.721V25.72c-4.173.908-5.041-1.77-5.041-1.77a3.973,3.973,0,0,0-1.666-2.2c-1.361-.931.1-.911.1-.911a3.149,3.149,0,0,1,2.3,1.546,3.193,3.193,0,0,0,4.365,1.246,3.182,3.182,0,0,1,.953-2c-3.331-.381-6.834-1.667-6.834-7.414a5.806,5.806,0,0,1,1.545-4.026,5.4,5.4,0,0,1,.146-3.97s1.26-.4,4.126,1.537a14.218,14.218,0,0,1,7.511,0c2.864-1.94,4.121-1.537,4.121-1.537a5.39,5.39,0,0,1,.147,3.97,5.79,5.79,0,0,1,1.544,4.026c0,5.761-3.509,7.03-6.849,7.4A3.585,3.585,0,0,1,18.75,24.4v4.116c0,.4.24.868,1,.72A15,15,0,0,0,15,0Z" fill="#777"/>
</svg>
