<svg xmlns="http://www.w3.org/2000/svg" width="199" height="198.998" viewBox="0 0 199 198.998">
  <g id="iso" transform="translate(0)">
    <path id="Trazado_1" data-name="Trazado 1" d="M143.41,34.6a3.952,3.952,0,1,0,4.39,3.46A3.962,3.962,0,0,0,143.41,34.6Zm1.38,5.96-.88-1.48-.15-1.25.11-.01c.3-.04.44-.18.41-.44-.03-.23-.22-.32-.57-.28l-.26.03.42,3.54-1.44.17L141.87,36l1.85-.22a1.9,1.9,0,0,1,1.36.26,1.565,1.565,0,0,1,.66,1.13,1.511,1.511,0,0,1-.5,1.31l1.07,1.9Z" transform="translate(20.242 -2.838)" fill="#56ffaa"/>
    <path id="Trazado_2" data-name="Trazado 2" d="M130.39,61.53a3.787,3.787,0,0,0,5.19-1.87,4.174,4.174,0,0,0-1.94-5.41,3.74,3.74,0,0,0-3.02-.16,3.676,3.676,0,0,0-2.19,2.04,4.183,4.183,0,0,0,1.96,5.4Z" transform="translate(17.641 1.397)" fill="#56ffaa"/>
    <path id="Trazado_3" data-name="Trazado 3" d="M206.837,96.328A99.49,99.49,0,1,0,119.75,206.837,99.489,99.489,0,0,0,206.837,96.328ZM142.265,60.942a17.186,17.186,0,0,1,10.019-8.822,16.143,16.143,0,0,1,12.871.653,16.9,16.9,0,0,1,8.085,22.563,17.25,17.25,0,0,1-22.805,8.218,16.3,16.3,0,0,1-8.822-9.584A16.14,16.14,0,0,1,142.265,60.942Zm20.183,34.081a6.713,6.713,0,0,1-8.266,2.985,5.779,5.779,0,0,1-2.731-7.855,6.157,6.157,0,0,1,8.085-2.925,5.524,5.524,0,0,1,3.106,3.275A5.583,5.583,0,0,1,162.448,95.023ZM131.183,47.7l15.167,41.96-11.493,4.157L119.69,51.854ZM98.117,59.649l9.076,25.113q2.212,6.109,6.611,4.532a4.655,4.655,0,0,0,2.719-2.429,4.42,4.42,0,0,0,.193-3.565,4.659,4.659,0,0,0-2.369-2.707,4.236,4.236,0,0,0-3.469-.181,5.624,5.624,0,0,0-2.49,2.151L103.809,69.9c1.305-.616,2.308-1.039,3.009-1.293a16.066,16.066,0,0,1,12.8.653,16.413,16.413,0,0,1,8.689,9.584,16.211,16.211,0,0,1-.6,13.04,17.454,17.454,0,0,1-17.161,9.7,16.152,16.152,0,0,1-6.864-2.1q-5.293-3.1-7.831-10.128L86.612,63.806Zm21.693,50.783a6.713,6.713,0,0,1-8.266,2.985,5.779,5.779,0,0,1-2.731-7.855,6.157,6.157,0,0,1,8.085-2.925,5.791,5.791,0,0,1,2.913,7.8Zm-88.562,4.725q-2.538-7.034-.459-12.8a16.076,16.076,0,0,1,3.928-6.006,17.469,17.469,0,0,1,19.4-3.493A15.907,15.907,0,0,1,61.341,99.2,16.255,16.255,0,0,1,62.8,89.754a16.42,16.42,0,0,1,9.656-8.738q7.433-2.683,13.306.109,5.855,2.792,8.581,10.333l5.438,15.034-11.493,4.157-5.136-14.2A6.278,6.278,0,0,0,80.569,93a4.155,4.155,0,0,0-3.71-.29,4.813,4.813,0,0,0-.52,8.774,4.373,4.373,0,0,0,3.493.133,5.6,5.6,0,0,0,2.514-1.813l4.3,11.892a16.906,16.906,0,0,1-2.49,1.184c-.242.085-.5.157-.737.23a6.051,6.051,0,0,1,3.082.532,5.791,5.791,0,0,1,2.913,7.8,6.713,6.713,0,0,1-8.266,2.985,5.779,5.779,0,0,1-2.731-7.855,6,6,0,0,1,3.106-2.949A16.336,16.336,0,0,1,71,112.5a16,16,0,0,1-7.191-6.454,16.536,16.536,0,0,1-1.486,9.378,15.993,15.993,0,0,1-9.354,8.738c-.7.254-1.752.544-3.154.894l-4.58-12.665a4.858,4.858,0,0,0,3.239.121,4.377,4.377,0,0,0,2.586-2.429,4.659,4.659,0,0,0,.145-3.6,4.372,4.372,0,0,0-2.441-2.61,4.661,4.661,0,0,0-3.626-.133q-4.423,1.6-2.212,7.723l9.088,25.15-11.493,4.157ZM62.4,170.593,65,148.549l-9.717,3.517-4.339-11.989,28.5-10.3-2.671,22,10.816-3.916,4.351,12.049ZM92.1,159.861,81.016,129.212l11.493-4.157L103.592,155.7Zm30.395-10.986L115.629,129.9a4.285,4.285,0,0,0-1.668.193c-2.091.761-2.562,2.731-1.4,5.934l5.257,14.539-11.493,4.157-6.055-16.75q-2.393-6.635-.205-11.9a13.268,13.268,0,0,1,8.254-7.445,24.9,24.9,0,0,1,3.626-.931l.109.3,10.853-3.916,11.082,30.648Zm14.237-5.148-15.167-41.96,11.493-4.157,15.167,41.96Zm14.2-5.124-15.167-41.96,11.493-4.157,15.167,41.96Zm14.2-5.136-11.082-30.648,11.493-4.157,11.082,30.649Zm7.71-82.483a6.255,6.255,0,1,1,5.475-6.949A6.268,6.268,0,0,1,172.841,50.984Z" transform="translate(-8.538 -8.54)" fill="#56ffaa"/>
  </g>
</svg>
