<svg id="iso" xmlns="http://www.w3.org/2000/svg" width="364" height="363.998" viewBox="0 0 364 363.998">
  <path id="Trazado_1" data-name="Trazado 1" d="M145.753,34.619a6.607,6.607,0,1,0,7.338,5.783A6.622,6.622,0,0,0,145.753,34.619Zm2.307,9.962-1.471-2.474-.251-2.089.184-.017c.5-.067.735-.3.685-.735-.05-.384-.368-.535-.953-.468l-.435.05.7,5.917-2.407.284-.936-8.09,3.092-.368a3.177,3.177,0,0,1,2.273.435,2.616,2.616,0,0,1,1.1,1.889,2.525,2.525,0,0,1-.836,2.19l1.789,3.176Z" transform="translate(154.539 23.327)" fill="#56ffaa"/>
  <path id="Trazado_2" data-name="Trazado 2" d="M130.39,61.53a3.787,3.787,0,0,0,5.19-1.87,4.174,4.174,0,0,0-1.94-5.41,3.74,3.74,0,0,0-3.02-.16,3.676,3.676,0,0,0-2.19,2.04,4.183,4.183,0,0,0,1.96,5.4Z" transform="translate(143.437 49.147)" fill="#56ffaa"/>
  <path id="Trazado_3" data-name="Trazado 3" d="M371.256,169.118C359.429,69.309,268.928-2,169.12,9.822S-2.024,112.151,9.824,211.96c11.827,99.809,102.328,171.123,202.136,159.3S383.083,268.927,371.256,169.118ZM253.144,104.392A31.436,31.436,0,0,1,271.47,88.254a29.527,29.527,0,0,1,23.543,1.194A30.92,30.92,0,0,1,309.8,130.72a31.552,31.552,0,0,1-41.714,15.032,29.822,29.822,0,0,1-16.137-17.53A29.523,29.523,0,0,1,253.144,104.392Zm36.917,62.339a12.28,12.28,0,0,1-15.12,5.46,10.571,10.571,0,0,1-5-14.369,11.263,11.263,0,0,1,14.789-5.35,10.1,10.1,0,0,1,5.681,5.991A10.212,10.212,0,0,1,290.061,166.731ZM232.873,80.163l27.743,76.752-21.023,7.6L211.85,87.768Zm-60.482,21.863,16.6,45.936q4.045,11.175,12.092,8.29a8.514,8.514,0,0,0,4.974-4.443,8.084,8.084,0,0,0,.354-6.521,8.522,8.522,0,0,0-4.333-4.952,7.749,7.749,0,0,0-6.344-.332,10.286,10.286,0,0,0-4.554,3.935L182.8,120.772c2.387-1.127,4.222-1.9,5.5-2.365a29.388,29.388,0,0,1,23.41,1.194,30.023,30.023,0,0,1,15.894,17.53,29.652,29.652,0,0,1-1.105,23.852,31.925,31.925,0,0,1-31.39,17.751,29.545,29.545,0,0,1-12.556-3.846q-9.682-5.67-14.325-18.525l-16.889-46.732Zm39.68,92.889a12.28,12.28,0,0,1-15.12,5.46,10.571,10.571,0,0,1-5-14.369,11.263,11.263,0,0,1,14.789-5.35,10.592,10.592,0,0,1,5.328,14.258ZM50.079,203.559q-4.642-12.866-.84-23.41a29.4,29.4,0,0,1,7.184-10.987,31.953,31.953,0,0,1,35.48-6.389,29.1,29.1,0,0,1,13.219,11.606,29.734,29.734,0,0,1,2.675-17.287A30.035,30.035,0,0,1,125.46,141.11q13.6-4.908,24.339.2,10.71,5.106,15.7,18.9l9.948,27.5-21.023,7.6-9.4-25.975a11.484,11.484,0,0,0-4.731-6.3,7.6,7.6,0,0,0-6.787-.531,8.8,8.8,0,0,0-.951,16.049,8,8,0,0,0,6.389.243,10.246,10.246,0,0,0,4.6-3.316l7.87,21.752a30.917,30.917,0,0,1-4.554,2.166c-.442.155-.906.287-1.348.42a11.066,11.066,0,0,1,5.637.973,10.592,10.592,0,0,1,5.328,14.258,12.28,12.28,0,0,1-15.12,5.46,10.571,10.571,0,0,1-5-14.369,10.984,10.984,0,0,1,5.681-5.394,29.881,29.881,0,0,1-19.254-2.056,29.266,29.266,0,0,1-13.153-11.8,30.247,30.247,0,0,1-2.719,17.154A29.254,29.254,0,0,1,89.8,220.028c-1.282.464-3.205.995-5.77,1.636L75.656,198.5a8.887,8.887,0,0,0,5.924.221,8.006,8.006,0,0,0,4.731-4.443,8.523,8.523,0,0,0,.265-6.588,8,8,0,0,0-4.465-4.775,8.525,8.525,0,0,0-6.632-.243q-8.091,2.918-4.045,14.126l16.624,46-21.023,7.6Zm56.989,101.4,4.753-40.321-17.773,6.433-7.936-21.929,52.126-18.834-4.885,40.233,19.785-7.162,7.958,22.04Zm54.314-19.63-20.271-56.061,21.023-7.6,20.271,56.061Zm55.6-20.094-12.556-34.706a7.838,7.838,0,0,0-3.051.354c-3.824,1.393-4.687,5-2.564,10.854l9.616,26.594-21.023,7.6L176.326,245.3q-4.377-12.136-.376-21.774,4.012-9.616,15.1-13.617a45.541,45.541,0,0,1,6.632-1.7l.2.553,19.851-7.162L238,257.653Zm26.041-9.417-27.743-76.752,21.023-7.6,27.743,76.752Zm25.974-9.373-27.743-76.752,21.023-7.6,27.743,76.752Zm25.974-9.4L274.7,180.989l21.023-7.6,20.271,56.061Zm14.1-150.874a11.442,11.442,0,1,1,10.014-12.711A11.466,11.466,0,0,1,309.072,86.176Z" transform="translate(-8.538 -8.54)" fill="#56ffaa"/>
</svg>
